<svg version="1.1" id="Layer_1" xmlns="http://www.w3.org/2000/svg" xmlns:xlink="http://www.w3.org/1999/xlink" x="0px" y="0px"
	 width="100%" viewBox="0 0 736 688" enable-background="new 0 0 736 688" xml:space="preserve">
<path fill="#000000" opacity="1.000000" stroke="none" 
	d="
M516.625000,1.000000 
	C510.919403,15.971577 505.369720,31.135532 500.527008,46.554314 
	C499.192413,50.803547 496.700470,54.123009 493.384064,57.151180 
	C477.841309,71.342911 461.321472,84.220238 443.446259,95.350616 
	C441.498993,96.563110 439.722168,98.049286 437.924561,99.365852 
	C444.531250,111.969139 444.232361,125.785522 447.156708,138.836853 
	C450.942505,155.732773 451.400543,173.139755 454.048035,190.234177 
	C455.897369,202.175064 460.388641,212.535095 469.387146,220.830185 
	C474.363495,225.417496 474.236542,225.536911 469.915405,230.888855 
	C468.870361,232.183136 468.103577,233.766525 466.877533,234.837784 
	C463.602081,237.699829 463.170135,240.680634 465.402618,244.453644 
	C467.132294,247.376831 467.368591,250.795441 467.183014,254.167816 
	C467.018311,257.161102 466.819519,260.156769 466.496765,263.136322 
	C465.615845,271.268280 465.674530,279.000641 472.505219,285.148895 
	C476.169525,288.447113 475.796265,291.603912 472.865082,296.213715 
	C465.537872,307.736938 465.935638,320.267212 472.466583,332.099731 
	C474.981201,336.655609 475.531891,339.451630 470.499207,341.943085 
	C468.225861,343.068512 467.284546,345.033417 467.185242,347.649017 
	C466.951508,353.805847 466.498077,359.954895 466.096649,366.104645 
	C465.809662,370.501465 465.898346,374.745514 469.034821,378.365601 
	C470.523224,380.083435 470.185974,381.937866 468.968292,383.877411 
	C465.288818,389.738190 459.209381,391.676819 453.098877,388.761719 
	C446.311737,385.523834 442.632111,387.817383 442.985962,394.845978 
	C443.141235,397.930908 444.571198,398.883179 447.382812,398.851929 
	C453.548584,398.783356 459.715668,398.833832 465.882202,398.827576 
	C488.381866,398.804718 510.904907,398.138092 533.373779,398.957123 
	C551.215149,399.607483 565.398010,392.749084 578.106262,381.370087 
	C582.941101,377.040985 587.896729,372.809082 592.067017,367.789917 
	C594.758423,364.550690 597.078064,364.067932 600.004395,367.839081 
	C604.494202,373.625061 609.420471,379.072632 614.169861,384.656799 
	C618.163757,389.352722 618.151733,390.232452 613.139160,394.195343 
	C597.708923,406.394501 582.627930,418.969421 568.759949,432.972626 
	C556.797668,445.051514 548.408997,458.740662 546.874207,476.116699 
	C546.269165,482.966370 545.425842,483.252563 538.534363,481.804169 
	C537.719788,481.632965 536.911377,481.376251 536.088074,481.310944 
	C525.665833,480.484344 517.256836,476.658081 510.952454,467.602203 
	C505.599792,459.913513 497.307739,455.636536 488.264374,452.952179 
	C475.290588,449.101257 462.123230,446.395111 448.630676,445.218567 
	C444.618286,444.868652 442.970947,446.111389 442.984039,450.411835 
	C443.119446,494.910431 443.112122,539.409485 443.115601,583.908447 
	C443.116608,596.852295 448.417480,607.758057 455.869476,617.904114 
	C460.017792,623.552063 459.751221,624.331177 453.155090,626.975952 
	C438.507812,632.848938 424.553772,639.792847 413.928284,651.977234 
	C408.196686,658.549683 403.912231,666.085571 399.427765,673.498535 
	C396.918701,677.646057 395.121887,677.767151 393.342194,673.601746 
	C382.481934,648.183044 362.114838,633.673889 337.308319,624.039490 
	C334.190002,622.828369 329.152405,622.741699 328.766479,619.026733 
	C328.361816,615.131287 333.428131,614.440674 336.288147,612.840698 
	C349.198395,605.618469 354.939148,594.946777 354.808685,580.046326 
	C354.448273,538.883240 354.714813,497.714752 354.706573,456.548431 
	C354.705078,449.065125 354.432861,448.594696 347.161163,449.308807 
	C311.084625,452.851776 275.395111,458.031647 242.328278,474.324585 
	C232.304855,479.263397 223.579971,485.720825 216.320084,494.189911 
	C215.453018,495.201385 214.536636,496.170410 213.657974,497.172150 
	C211.072708,500.119690 209.187424,499.491760 207.898010,496.027954 
	C205.690002,490.096497 203.625244,484.108887 201.293045,478.227051 
	C192.871948,456.989014 178.956177,440.157379 160.146484,427.295715 
	C157.670822,425.602936 155.065994,424.067841 152.756531,422.172668 
	C150.805206,420.571320 149.113159,418.299011 149.586533,415.727722 
	C150.090729,412.989075 153.086823,413.493744 155.038208,413.210632 
	C180.077576,409.578064 195.192184,392.718140 206.202148,372.378357 
	C227.370300,333.272308 247.179535,293.430573 267.544098,253.889694 
	C277.841400,233.895996 287.391632,213.470520 298.654083,194.036804 
	C306.693359,180.164719 306.500031,166.339645 302.171539,152.271805 
	C294.148804,126.197411 290.039276,99.469933 287.011383,72.505669 
	C286.009430,63.582966 285.500366,54.603630 284.851776,45.643970 
	C284.758820,44.359989 284.779053,42.830559 285.377289,41.770409 
	C291.507660,30.906183 297.238190,19.790424 305.656128,10.375108 
	C308.249939,7.473993 309.874512,7.487211 312.239807,10.611644 
	C317.572510,17.655973 322.906891,24.691893 327.245605,32.399799 
	C328.613007,34.829029 330.534760,36.005379 333.089142,36.570675 
	C353.284790,41.040051 373.204590,46.378471 391.892365,55.516666 
	C393.560547,56.332413 395.041412,56.439423 396.570892,55.384716 
	C417.013458,41.287930 440.466736,34.010830 463.480530,25.685585 
	C477.453827,20.630743 490.018066,13.258681 499.791595,1.257819 
	C501.066681,1.000000 502.133331,1.000000 503.450989,1.302434 
	C497.194916,12.095414 488.618103,20.585514 478.610840,27.725653 
	C463.431152,38.556305 447.478058,48.225719 432.254456,59.018948 
	C419.487305,68.070602 409.065491,78.492310 402.006531,92.683899 
	C395.360138,106.046135 390.731262,120.040352 386.103210,134.104858 
	C385.538361,135.821457 385.602203,138.134003 383.113831,138.704071 
	C382.863159,138.215668 382.586700,137.925949 382.593292,137.642853 
	C382.612488,136.819031 382.623566,135.962540 382.850891,135.180817 
	C388.303680,116.430817 394.609558,98.049805 405.239899,81.436729 
	C411.862427,71.087097 411.783661,70.949753 401.419495,64.443558 
	C381.500366,51.939167 359.143341,45.810974 336.583313,40.621212 
	C329.947723,39.094746 325.795929,36.369263 322.383850,30.611984 
	C318.582916,24.198582 315.153961,17.135714 307.986053,13.247562 
	C301.071045,20.252995 296.463654,28.525248 291.712585,36.746548 
	C288.440735,42.408119 287.879303,48.309132 288.566925,54.570885 
	C289.527679,63.319988 290.619476,72.062202 291.275208,80.835777 
	C292.693634,99.814293 296.533783,118.340210 300.936646,136.802765 
	C303.923309,149.326813 309.909210,161.309647 308.131989,174.750229 
	C307.739685,177.717072 307.339294,180.693512 307.188141,183.677963 
	C307.080200,185.809174 306.889893,188.656616 309.258789,189.355896 
	C312.842926,190.413879 314.022430,193.171494 315.599731,195.897263 
	C316.935242,198.205276 318.472992,201.143372 321.102448,201.349060 
	C325.760376,201.713379 330.024689,203.173019 334.272766,205.134995 
	C335.297394,202.015091 334.899841,199.478348 334.415802,197.103333 
	C332.828583,189.314819 334.091827,181.920593 336.637115,174.544800 
	C337.579376,171.814346 339.055267,170.192429 341.896698,170.115738 
	C344.954102,170.033249 348.257599,169.075806 350.348969,172.656448 
	C358.579712,186.748047 371.849701,192.676376 387.124603,195.881882 
	C399.955475,198.574509 410.430847,205.218918 413.343933,218.872620 
	C416.121643,231.891937 413.218414,244.665222 407.701141,256.645905 
	C405.134857,262.218536 400.121033,266.222809 396.480621,271.161560 
	C401.008942,269.093170 404.688599,265.946960 408.692841,263.292267 
	C412.606232,260.697845 414.882538,257.370117 415.428192,252.783966 
	C416.095978,247.171310 417.900513,241.716446 417.711548,235.982742 
	C417.625702,233.377884 418.749542,231.114380 420.023499,228.953064 
	C421.799042,225.940720 424.482910,224.466812 427.981018,224.953827 
	C431.600189,225.457703 433.369354,227.973282 434.195496,231.290390 
	C435.237366,235.473648 434.821320,239.534821 433.177948,243.515350 
	C432.350342,245.519897 431.508789,247.660324 435.646423,248.515015 
	C436.795990,228.401825 450.461548,224.275589 467.420410,224.169479 
	C466.926331,223.283447 466.737518,222.635498 466.315094,222.232346 
	C454.276947,210.743561 451.142700,195.802948 449.561279,180.097015 
	C448.045898,165.047455 446.665466,149.964752 443.671509,135.100052 
	C442.733765,130.444351 432.327820,120.086533 428.012848,119.663101 
	C426.569031,119.521416 425.509796,120.447823 424.419037,121.188156 
	C419.077667,124.813522 415.167542,129.766220 411.695770,135.096786 
	C410.697906,136.628922 410.042053,138.512390 408.186188,139.168518 
	C401.443115,141.552460 394.592102,143.653534 388.446777,147.467346 
	C387.577606,148.006760 386.524445,148.162704 385.729736,147.217255 
	C384.927765,146.263107 385.368439,145.279556 385.957367,144.475830 
	C387.332947,142.598450 388.726501,140.721420 390.265533,138.979187 
	C394.129181,134.605423 397.893982,130.186646 400.702972,125.010559 
	C407.612305,112.278778 414.676117,99.630379 421.520081,86.863876 
	C423.243591,83.648819 425.552643,81.394150 428.648529,79.487587 
	C448.072052,67.525772 468.977539,58.944401 490.691193,52.284916 
	C494.746246,51.041241 496.722107,48.914314 497.944153,45.086601 
	C502.703430,30.179653 507.664154,15.336700 514.000000,1.000000 
	C514.750000,1.000000 515.500000,1.000000 516.625000,1.000000 
M354.785095,304.500000 
	C354.787079,275.837921 354.784943,247.175842 354.794708,218.513763 
	C354.796600,213.015274 354.867249,207.516754 354.859253,202.018311 
	C354.856781,200.307632 354.632416,198.432266 352.732758,197.892075 
	C350.548889,197.271088 349.993042,199.385132 349.242462,200.736893 
	C342.211212,213.399918 334.988464,225.965546 328.304230,238.810760 
	C301.627075,290.076782 275.111877,341.427063 248.607849,392.782928 
	C247.770859,394.404694 246.097153,396.033661 247.290085,398.572510 
	C248.831055,398.656036 250.470764,398.821716 252.110535,398.822479 
	C284.105408,398.837158 316.100250,398.839355 348.095123,398.826477 
	C354.579620,398.823883 354.676544,398.716064 354.686218,391.985870 
	C354.727722,363.157257 354.753265,334.328613 354.785095,304.500000 
M448.695831,315.182922 
	C442.628296,321.558929 438.347595,329.460236 431.565521,335.229889 
	C430.022980,336.542145 429.253479,338.020599 430.705872,339.968933 
	C432.095337,341.832886 433.880432,341.774963 435.592377,340.874084 
	C438.229279,339.486511 440.707001,337.799683 443.280884,336.288544 
	C451.185455,331.647583 458.985596,326.169098 468.507782,333.261353 
	C467.605499,330.876038 466.781769,328.913788 466.116516,326.899200 
	C464.134064,320.895905 464.605835,314.791016 465.233765,308.628326 
	C465.579926,305.230988 467.100433,301.477936 463.372986,297.811554 
	C458.495667,303.596130 453.833954,309.124939 448.695831,315.182922 
M463.106506,270.563721 
	C462.886810,261.599548 466.267914,252.318329 460.764526,242.273285 
	C451.841553,256.602295 440.787018,268.243195 437.766602,285.988403 
	C447.372192,281.595551 455.853760,278.890137 466.313385,282.523438 
	C462.848602,278.461609 462.990662,274.960236 463.106506,270.563721 
M456.307556,379.844330 
	C463.240875,379.749908 463.186676,379.753296 462.754822,372.871307 
	C462.504456,368.882050 462.694458,364.902191 463.264221,360.924408 
	C463.887207,356.575104 464.221985,352.190247 462.990448,347.482666 
	C459.595551,361.334534 446.855988,366.113983 437.372711,373.665283 
	C442.223389,380.982635 448.942078,379.938324 456.307556,379.844330 
M411.454193,49.978680 
	C407.343445,52.846745 402.388916,54.507107 398.691895,58.430096 
	C401.450928,60.995838 403.321808,59.022346 405.093170,57.822189 
	C414.711639,51.305439 424.266724,44.712223 435.180786,40.416656 
	C438.852875,38.971390 442.808258,38.108898 446.048706,35.675198 
	C434.322662,39.347538 422.807709,43.518021 411.454193,49.978680 
M465.440765,340.726898 
	C466.935883,340.360992 468.579987,339.722229 468.068054,337.953644 
	C467.682190,336.620667 466.220184,335.769867 464.447540,336.214294 
	C463.581421,337.785522 462.435211,339.342407 465.440765,340.726898 
M468.950958,290.883026 
	C467.666534,292.282043 465.972748,293.522491 466.832977,295.910736 
	C471.179047,294.178040 471.738617,292.980316 468.950958,290.883026 
z"/>
<path fill="#000000" opacity="1.000000" stroke="none" 
	d="
M329.643982,78.999756 
	C330.023407,67.227875 328.823029,55.846527 331.340607,44.284092 
	C334.093018,45.924915 333.358459,47.978542 333.272461,49.612923 
	C332.039124,73.053047 332.871918,96.527092 332.130371,119.963524 
	C331.585785,137.173843 326.753540,153.688217 321.494934,169.992264 
	C320.431305,173.290009 320.621857,177.209106 317.498810,180.028244 
	C315.429474,177.961487 316.804474,176.053940 317.273560,174.317993 
	C320.827301,161.167160 325.203766,148.237961 327.573151,134.770859 
	C330.156464,120.087738 329.672241,105.277847 329.669617,90.482506 
	C329.668976,86.821609 329.652405,83.160713 329.643982,78.999756 
z"/>
<path fill="#000000" opacity="1.000000" stroke="none" 
	d="
M310.904419,148.951172 
	C310.909851,129.463684 310.909851,110.468018 310.909851,91.472336 
	C314.815613,96.947151 315.461426,155.308884 312.286621,160.538300 
	C309.634552,156.913071 311.407623,153.000626 310.904419,148.951172 
z"/>
<path fill="#000000" opacity="1.000000" stroke="none" 
	d="
M312.531586,60.480324 
	C312.727417,64.138329 313.891083,67.405586 311.567657,70.513588 
	C308.719513,56.702637 308.842316,42.756432 309.533844,28.697605 
	C312.148163,30.267836 312.207306,32.651283 312.233521,35.031353 
	C312.325378,43.362377 312.402405,51.693562 312.531586,60.480324 
z"/>
</svg>